<svg width="32" height="33" viewBox="0 0 32 33" fill="none" xmlns="http://www.w3.org/2000/svg">
<path d="M16 25.1646C14.8158 25.1646 13.7007 24.9377 12.6548 24.4839C11.6089 24.0356 10.6875 23.4131 9.89062 22.6162C9.09375 21.8249 8.46842 20.9062 8.01465 19.8604C7.56641 18.8145 7.34229 17.6966 7.34229 16.5068C7.34229 15.4001 7.53874 14.3542 7.93164 13.3691C8.33008 12.3786 8.8807 11.4959 9.5835 10.7212C10.2918 9.94645 11.1136 9.31283 12.0488 8.82031C12.9896 8.3278 14.0023 8.02344 15.0869 7.90723V16.6978C15.0869 16.8416 15.1035 16.9578 15.1367 17.0464C15.1699 17.1294 15.2336 17.2152 15.3276 17.3037L21.4121 23.2388C20.6484 23.853 19.8018 24.3262 18.8721 24.6582C17.9479 24.9958 16.9906 25.1646 16 25.1646ZM24.6577 16.5068C24.6577 17.5749 24.4668 18.5986 24.085 19.5781C23.7031 20.5576 23.1774 21.4237 22.5078 22.1763L17.1621 16.9302L23.9189 13.062C24.1569 13.5767 24.3395 14.13 24.4668 14.7222C24.5941 15.3143 24.6577 15.9092 24.6577 16.5068ZM16.5645 15.5688V7.87402C17.4499 7.92936 18.3076 8.12305 19.1377 8.45508C19.9678 8.78711 20.7314 9.23535 21.4287 9.7998C22.1315 10.3643 22.7236 11.0173 23.2051 11.7588L16.5645 15.5688Z" fill="#4D5ACA"/>
</svg>
