<svg width="33" height="33" viewBox="0 0 33 33" fill="none" xmlns="http://www.w3.org/2000/svg">
<path d="M15.6118 24.0356C14.909 24.0356 14.4193 23.9277 14.1426 23.7119C13.8659 23.5016 13.7275 23.2 13.7275 22.8071C13.7275 22.2759 13.8908 21.717 14.2173 21.1304C14.5438 20.5438 15.0142 19.9959 15.6284 19.4868C16.2427 18.9722 16.9814 18.5544 17.8447 18.2334C18.7135 17.9124 19.6847 17.752 20.7583 17.752C21.8319 17.752 22.8003 17.9124 23.6636 18.2334C24.5324 18.5544 25.2739 18.9722 25.8882 19.4868C26.5024 19.9959 26.9728 20.5438 27.2993 21.1304C27.6258 21.717 27.7891 22.2759 27.7891 22.8071C27.7891 23.2 27.6507 23.5016 27.374 23.7119C27.0973 23.9277 26.6048 24.0356 25.8965 24.0356H15.6118ZM20.7583 16.291C20.144 16.291 19.5824 16.1278 19.0732 15.8013C18.5641 15.4692 18.1546 15.0265 17.8447 14.4731C17.5404 13.9142 17.3882 13.2889 17.3882 12.5972C17.3882 11.9276 17.5431 11.3188 17.853 10.771C18.1629 10.2176 18.5724 9.78044 19.0815 9.45947C19.5907 9.13298 20.1496 8.96973 20.7583 8.96973C21.3726 8.96973 21.9342 9.13021 22.4434 9.45117C22.9525 9.77214 23.3592 10.2065 23.6636 10.7544C23.9735 11.2967 24.1284 11.9082 24.1284 12.5889C24.1284 13.2806 23.9735 13.9059 23.6636 14.4648C23.3592 15.0238 22.9525 15.4692 22.4434 15.8013C21.9342 16.1278 21.3726 16.291 20.7583 16.291ZM6.59717 24.0439C6.01611 24.0439 5.60661 23.9222 5.36865 23.6787C5.1307 23.4408 5.01172 23.1032 5.01172 22.666C5.01172 22.1126 5.1556 21.5482 5.44336 20.9727C5.73665 20.3916 6.15169 19.8576 6.68848 19.3706C7.23079 18.8836 7.87549 18.488 8.62256 18.1836C9.37516 17.8792 10.2135 17.7271 11.1377 17.7271C11.8682 17.7271 12.5295 17.8239 13.1216 18.0176C13.7192 18.2057 14.2422 18.4437 14.6904 18.7314C14.209 19.1133 13.7967 19.5422 13.4536 20.0181C13.1105 20.494 12.8477 20.981 12.665 21.479C12.488 21.9715 12.4022 22.4391 12.4077 22.8818C12.4188 23.3301 12.535 23.7174 12.7563 24.0439H6.59717ZM11.1377 16.4736C10.6064 16.4736 10.1167 16.3325 9.66846 16.0503C9.22575 15.7625 8.87158 15.3752 8.60596 14.8882C8.34033 14.4012 8.20752 13.8589 8.20752 13.2612C8.20752 12.6746 8.34033 12.1434 8.60596 11.6675C8.87712 11.186 9.23405 10.8042 9.67676 10.522C10.125 10.2397 10.612 10.0986 11.1377 10.0986C11.6634 10.0986 12.1476 10.2397 12.5903 10.522C13.0386 10.7987 13.3955 11.175 13.6611 11.6509C13.9323 12.1268 14.0679 12.6608 14.0679 13.2529C14.0679 13.8506 13.9351 14.3957 13.6694 14.8882C13.4038 15.3752 13.0496 15.7625 12.6069 16.0503C12.1642 16.3325 11.6745 16.4736 11.1377 16.4736Z" fill="#4D5ACA"/>
</svg>
