<svg width="33" height="33" viewBox="0 0 33 33" fill="none" xmlns="http://www.w3.org/2000/svg">
<path d="M7.63501 24.3345C6.98201 24.3345 6.4812 24.1629 6.13257 23.8198C5.78394 23.4823 5.60962 23.0008 5.60962 22.3755V15.4443C5.60962 14.819 5.78394 14.3348 6.13257 13.9917C6.4812 13.6486 6.98201 13.4771 7.63501 13.4771H9.90942C10.568 13.4771 11.0715 13.6486 11.4202 13.9917C11.7688 14.3348 11.9431 14.8162 11.9431 15.436V22.3755C11.9431 23.0008 11.7688 23.4823 11.4202 23.8198C11.0715 24.1629 10.568 24.3345 9.90942 24.3345H7.63501ZM15.4543 24.3345C14.8014 24.3345 14.3005 24.1629 13.9519 23.8198C13.6033 23.4823 13.429 23.0008 13.429 22.3755V13.0122C13.429 12.3869 13.6033 11.9027 13.9519 11.5596C14.3005 11.2165 14.8014 11.0449 15.4543 11.0449H17.7371C18.3901 11.0449 18.8909 11.2165 19.2395 11.5596C19.5881 11.9027 19.7625 12.3841 19.7625 13.0039V22.3755C19.7625 23.0008 19.5881 23.4823 19.2395 23.8198C18.8909 24.1629 18.3901 24.3345 17.7371 24.3345H15.4543ZM23.2737 24.3345C22.6262 24.3345 22.1282 24.1629 21.7795 23.8198C21.4309 23.4823 21.2566 23.0008 21.2566 22.3755V10.5884C21.2566 9.96305 21.4309 9.48161 21.7795 9.14404C22.1282 8.80094 22.6262 8.62939 23.2737 8.62939H25.5564C26.2094 8.62939 26.7102 8.80094 27.0588 9.14404C27.413 9.48161 27.5901 9.96305 27.5901 10.5884V22.3755C27.5901 23.0008 27.413 23.4823 27.0588 23.8198C26.7102 24.1629 26.2094 24.3345 25.5564 24.3345H23.2737Z" fill="#4D5ACA"/>
</svg>
