<svg width="33" height="33" viewBox="0 0 33 33" fill="none" xmlns="http://www.w3.org/2000/svg">
<path d="M8.88965 23.1392V10.7544C8.88965 9.97412 9.0944 9.38477 9.50391 8.98633C9.91895 8.58789 10.4889 8.36377 11.2139 8.31396C12.1657 8.25309 13.0898 8.16732 13.9863 8.05664C14.8883 7.94043 15.7544 7.80762 16.5845 7.6582C17.4201 7.50879 18.217 7.34554 18.9751 7.16846C19.8273 6.9637 20.4941 7.05778 20.9756 7.45068C21.4626 7.84359 21.7061 8.48551 21.7061 9.37646V21.4956C21.7061 22.2371 21.576 22.8099 21.3159 23.2139C21.0614 23.6234 20.6104 23.9222 19.9629 24.1104C19 24.3815 18.0482 24.6056 17.1074 24.7827C16.1667 24.9653 15.2342 25.1092 14.3101 25.2144C13.3859 25.3195 12.459 25.397 11.5293 25.4468C10.6882 25.4966 10.0379 25.3167 9.57861 24.9072C9.1193 24.5033 8.88965 23.9139 8.88965 23.1392ZM12.2847 12.8296C13.4468 12.7521 14.512 12.6331 15.4805 12.4727C16.4489 12.3122 17.4007 12.1268 18.3359 11.9165C18.5518 11.8722 18.6929 11.7975 18.7593 11.6924C18.8257 11.5872 18.8589 11.471 18.8589 11.3438C18.8589 11.1999 18.8035 11.0781 18.6929 10.9785C18.5877 10.8734 18.43 10.8402 18.2197 10.8789C17.3288 11.0837 16.4046 11.2663 15.4473 11.4268C14.4954 11.5817 13.4357 11.6979 12.2681 11.7754C12.0854 11.792 11.9526 11.8529 11.8696 11.958C11.7866 12.0576 11.7451 12.1794 11.7451 12.3232C11.7451 12.4671 11.7949 12.5916 11.8945 12.6968C11.9941 12.7964 12.1242 12.8407 12.2847 12.8296ZM12.2847 15.4858C13.4468 15.3973 14.512 15.2756 15.4805 15.1206C16.4489 14.9601 17.4007 14.7747 18.3359 14.5645C18.5518 14.5146 18.6929 14.4399 18.7593 14.3403C18.8257 14.2352 18.8589 14.119 18.8589 13.9917C18.8589 13.8478 18.8035 13.7233 18.6929 13.6182C18.5877 13.513 18.43 13.4826 18.2197 13.5269C17.3288 13.7316 16.4046 13.9115 15.4473 14.0664C14.4954 14.2214 13.4357 14.3403 12.2681 14.4233C12.0854 14.4344 11.9526 14.4925 11.8696 14.5977C11.7866 14.7028 11.7451 14.8245 11.7451 14.9629C11.7451 15.1123 11.7949 15.2396 11.8945 15.3447C11.9941 15.4443 12.1242 15.4914 12.2847 15.4858ZM12.2847 18.1255C13.4468 18.0425 14.512 17.9207 15.4805 17.7603C16.4489 17.5998 17.4007 17.4172 18.3359 17.2124C18.5518 17.1626 18.6929 17.0851 18.7593 16.98C18.8257 16.8748 18.8589 16.7614 18.8589 16.6396C18.8589 16.4958 18.8035 16.3713 18.6929 16.2661C18.5877 16.161 18.43 16.1278 18.2197 16.1665C17.3288 16.3713 16.4046 16.5511 15.4473 16.7061C14.4954 16.861 13.4357 16.9827 12.2681 17.0713C12.0854 17.0824 11.9526 17.1405 11.8696 17.2456C11.7866 17.3507 11.7451 17.4725 11.7451 17.6108C11.7451 17.7603 11.7949 17.8848 11.8945 17.9844C11.9941 18.084 12.1242 18.131 12.2847 18.1255ZM12.2847 20.7651C12.9598 20.7209 13.5409 20.6683 14.0278 20.6074C14.5148 20.541 14.9741 20.4718 15.4058 20.3999C15.5662 20.3722 15.6852 20.3058 15.7627 20.2007C15.8402 20.0955 15.8789 19.9821 15.8789 19.8604C15.8789 19.7109 15.8236 19.5837 15.7129 19.4785C15.6022 19.3734 15.4417 19.3402 15.2314 19.3789C14.8551 19.4398 14.4346 19.5007 13.9697 19.5615C13.5049 19.6169 12.9377 19.6639 12.2681 19.7026C12.0854 19.7192 11.9526 19.7773 11.8696 19.877C11.7866 19.9766 11.7451 20.0983 11.7451 20.2422C11.7451 20.3971 11.7949 20.5244 11.8945 20.624C11.9941 20.7236 12.1242 20.7707 12.2847 20.7651ZM15.9121 26.2188C16.626 26.1025 17.3481 25.967 18.0786 25.812C18.8146 25.6571 19.5562 25.4744 20.3032 25.2642C20.8677 25.0981 21.3464 24.863 21.7393 24.5586C22.1322 24.2598 22.431 23.8613 22.6357 23.3633C22.8405 22.8708 22.9429 22.2482 22.9429 21.4956V9.45947C22.9429 9.31006 22.9346 9.16341 22.918 9.01953C22.9069 8.87012 22.8903 8.70133 22.8682 8.51318C23.4769 8.64046 23.9362 8.92822 24.2461 9.37646C24.556 9.82471 24.7109 10.4168 24.7109 11.1528V23.4214C24.7109 24.3511 24.4785 25.0483 24.0137 25.5132C23.5488 25.9836 22.8599 26.2188 21.9468 26.2188H15.9121Z" fill="#4D5ACA"/>
</svg>
